#N canvas 691 210 622 524 12;
#X obj 282 275 osc~;
#X obj 277 459 dac~;
#X floatatom 52 420 5 0 0 0 - - - 0;
#X floatatom 71 394 5 0 0 0 - - - 0;
#X floatatom 93 369 5 0 0 0 - - - 0;
#X floatatom 113 343 5 0 0 0 - - - 0;
#X floatatom 139 315 5 0 0 0 - - - 0;
#X floatatom 203 229 5 0 0 0 - - - 0;
#X floatatom 191 282 5 0 0 0 - - - 0;
#X obj 388 92 netreceive -u -b -f 8194;
#X obj 348 216 vsl 15 128 0 127 0 0 empty empty empty 0 -9 0 10 #fcfcfc
#000000 #000000 0 1;
#X listbox 265 151 20 0 0 0 - - - 0;
#X obj 53 98 netreceive -u -b -f 1982;
#X msg 386 361 connect 192.168.0.22 1982;
#X msg 385 408 netsend 1;
#X obj 303 186 print;
#X obj 53 177 unpack f f f f;
#X obj 318 376 *~ -0.5;
#X connect 0 0 17 0;
#X connect 7 0 0 0;
#X connect 7 0 11 0;
#X connect 8 0 0 1;
#X connect 10 0 17 1;
#X connect 11 0 13 0;
#X connect 11 0 15 0;
#X connect 12 0 16 0;
#X connect 13 0 14 0;
#X connect 16 0 2 0;
#X connect 16 1 6 0;
#X connect 16 2 8 0;
#X connect 16 3 7 0;
#X connect 17 0 1 0;
#X connect 17 0 1 1;
